<mxfile host="app.diagrams.net" modified="2023-10-19T11:09:11.036Z" agent="Mozilla/5.0 (Windows NT 10.0; Win64; x64) AppleWebKit/537.36 (KHTML, like Gecko) Chrome/118.0.0.0 Safari/537.36" version="22.0.5" etag="sJW6c2B9Q3GZW0vc86Fo" type="github">
  <diagram name="Страница — 1" id="noGsGsLZhfyPnhWWMjcu">
    <mxGraphModel>
      <root>
        <mxCell id="0" />
        <mxCell id="1" parent="0" />
      </root>
    </mxGraphModel>
  </diagram>
</mxfile>
